<svg width="20" height="19" viewBox="0 0 20 19" fill="none" xmlns="http://www.w3.org/2000/svg">
<path d="M10.4084 11.9807H7.37898L12.6666 2.09789C12.8398 1.77589 12.8945 1.42739 12.8289 1.05238C12.7997 0.871463 12.7321 0.700251 12.6314 0.5521C12.5307 0.403949 12.3995 0.282865 12.2482 0.198298C11.9227 -0.00785884 11.5945 -0.0471268 11.2617 0.0795124C10.9444 0.192971 10.6798 0.43336 10.5224 0.750995L9.99818 1.67576L9.47671 0.750995C9.31845 0.433217 9.05478 0.191348 8.73826 0.0736222C8.40915 -0.0559621 8.08004 -0.0147307 7.75002 0.19928C7.4273 0.399547 7.23676 0.685221 7.1775 1.05729C7.11824 1.42935 7.17477 1.77589 7.34889 2.09789L8.58054 4.36856L4.48719 11.9816H1.30732C0.970006 11.9816 0.669159 12.1053 0.40113 12.3527C0.134014 12.6011 0 12.9251 0 13.3266C0 13.7232 0.134014 14.0442 0.40113 14.2916C0.668247 14.539 0.970918 14.6627 1.30732 14.6627H12.2281C12.3203 14.2616 12.315 13.8416 12.2126 13.4434C12.1148 13.0388 11.9049 12.6758 11.6109 12.4028C11.3128 12.122 10.9117 11.9816 10.4075 11.9816L10.4084 11.9807ZM18.6918 11.9807H15.5219L12.0594 5.54169C11.713 5.81657 11.4669 6.22299 11.3201 6.76292C11.1718 7.32236 11.1242 7.90713 11.1797 8.48581C11.2326 9.09446 11.3857 9.63636 11.641 10.1115L16.0151 18.2478C16.1829 18.5688 16.4318 18.7927 16.7609 18.9203C17.0891 19.0479 17.4182 19.0116 17.7491 18.8103C18.0728 18.615 18.2678 18.3303 18.3326 17.9563C18.3982 17.5813 18.3444 17.2298 18.1694 16.9029L16.9569 14.6617H18.6927C19.0336 14.6617 19.3372 14.538 19.6025 14.2906C19.8669 14.0432 20 13.7212 20 13.3256C20 12.9241 19.8669 12.5991 19.6025 12.3517C19.3527 12.1104 19.0274 11.9781 18.6918 11.9807ZM2.53715 15.6257L1.84611 16.9019C1.6729 17.2298 1.61729 17.5793 1.67837 17.9514C1.74036 18.3224 1.92998 18.6091 2.24815 18.8103C2.58364 19.0165 2.91549 19.0548 3.24551 18.9242C3.5624 18.8043 3.82763 18.5637 3.99125 18.2478L4.99954 16.4013C4.91932 16.2452 4.76525 16.0822 4.53824 15.9124C4.27994 15.7281 3.98916 15.6031 3.68402 15.5452C3.34123 15.4716 2.95834 15.4981 2.53715 15.6257Z" fill="#D0823C"/>
</svg>
