<svg width="68" height="68" viewBox="0 0 68 68" fill="none" xmlns="http://www.w3.org/2000/svg">
<rect x="0.5" y="0.5" width="67" height="67" rx="33.5" fill="black" stroke="white"/>
<path d="M37.3369 17.4961C37.4333 19.0772 36.6591 20.6373 35.5996 21.8057L35.5986 21.8066C34.4653 23.0627 32.5531 24.0544 30.666 24.1416C30.5275 22.6347 31.3646 21.0638 32.457 19.9268L32.458 19.9258C33.6238 18.7056 35.5807 17.7345 37.3369 17.4961Z" fill="white" stroke="white"/>
<path d="M41.1992 25.1504C43.2281 25.1505 45.4112 26.1803 47.0752 28.0195C41.588 31.5281 42.5284 39.5796 48.1768 42.1348C47.5097 43.5951 47.1161 44.3639 46.1855 45.7773C45.4593 46.8803 44.6075 48.0833 43.6367 49.0107C42.6619 49.9421 41.6284 50.5375 40.5391 50.5459H40.5371C39.5341 50.5564 38.9217 50.242 38.0947 49.8672C37.2493 49.4841 36.2608 49.0847 34.625 49.0938H34.624C32.9919 49.1019 31.9924 49.4999 31.1357 49.8779C30.2953 50.2488 29.6645 50.5594 28.6553 50.5498L28.4492 50.542C27.4266 50.4715 26.4838 49.9448 25.6035 49.1406C24.6638 48.2822 23.8404 47.1487 23.1162 46.0488C21.1227 43.0209 20.024 39.7344 19.7295 36.7432C19.4341 33.7434 19.9496 31.0846 21.126 29.2764L21.127 29.2773C22.839 26.6502 25.5138 25.1543 27.9668 25.1543C29.2219 25.1544 30.2497 25.4965 31.2871 25.8643C32.3072 26.2259 33.3754 26.6299 34.5947 26.6299C35.7879 26.6298 36.7536 26.2175 37.7148 25.8584C38.6853 25.4959 39.729 25.1504 41.1992 25.1504Z" fill="white" stroke="white"/>
</svg>
