<svg width="50" height="50" viewBox="0 0 50 50" fill="none" xmlns="http://www.w3.org/2000/svg">
<path d="M41.6689 23.1876C41.979 23.1894 42.2827 23.0986 42.541 22.9269C42.7993 22.7552 43.0005 22.5104 43.119 22.2237C43.2374 21.937 43.2676 21.6215 43.2058 21.3176C43.144 21.0136 42.993 20.735 42.772 20.5173C37.7251 15.4876 31.0345 12.7205 23.9345 12.7205C23.0689 12.7205 22.1923 12.7626 21.2548 12.8517C20.852 12.9027 20.4848 13.1086 20.2311 13.4257C19.9774 13.7427 19.8572 14.1461 19.8957 14.5503C19.9343 14.9546 20.1288 15.3279 20.4379 15.5912C20.747 15.8545 21.1465 15.9872 21.5517 15.9611C22.3876 15.883 23.1673 15.8439 23.9345 15.8439C30.2032 15.8439 36.1079 18.2908 40.5642 22.7314C40.8704 23.0361 41.2689 23.1876 41.6689 23.1876ZM35.6064 29.2658C35.9153 29.2657 36.2174 29.174 36.4743 29.0023C36.7312 28.8306 36.9314 28.5866 37.0496 28.3012C37.1678 28.0157 37.1988 27.7016 37.1385 27.3985C37.0783 27.0955 36.9295 26.8171 36.711 26.5986C34.4455 24.3307 31.6168 22.7074 28.5157 21.8955C28.3162 21.8405 28.1077 21.8256 27.9024 21.8519C27.6971 21.8781 27.499 21.9449 27.3197 22.0483C27.1404 22.1518 26.9835 22.2898 26.858 22.4544C26.7325 22.619 26.6409 22.8069 26.5886 23.0072C26.5364 23.2075 26.5244 23.4162 26.5535 23.6211C26.5825 23.826 26.652 24.0232 26.7579 24.201C26.8638 24.3789 27.0039 24.5339 27.1702 24.6572C27.3366 24.7804 27.5257 24.8694 27.7267 24.9189C30.2899 25.5904 32.628 26.9328 34.5001 28.808C34.6452 28.9535 34.8176 29.0688 35.0075 29.1474C35.1974 29.226 35.4009 29.2662 35.6064 29.2658ZM21.6157 39.0705C21.6077 39.3805 21.6618 39.6891 21.7749 39.9779C21.888 40.2668 22.0578 40.53 22.2743 40.7522C22.4908 40.9743 22.7495 41.1509 23.0354 41.2715C23.3212 41.392 23.6282 41.4541 23.9384 41.4541C24.2486 41.4541 24.5556 41.392 24.8414 41.2715C25.1272 41.1509 25.386 40.9743 25.6025 40.7522C25.8189 40.53 25.9887 40.2668 26.1019 39.9779C26.215 39.6891 26.2691 39.3805 26.261 39.0705C26.2453 38.4649 25.9937 37.8894 25.5599 37.4666C25.126 37.0439 24.5442 36.8073 23.9384 36.8073C23.3326 36.8073 22.7508 37.0439 22.3169 37.4666C21.883 37.8894 21.6314 38.4649 21.6157 39.0705Z" fill="white"/>
<path d="M32.3704 41.2735C32.6601 41.2731 32.9439 41.1921 33.1902 41.0397C33.4365 40.8873 33.6356 40.6695 33.7653 40.4105C33.8949 40.1515 33.9501 39.8615 33.9245 39.573C33.8989 39.2845 33.7936 39.0088 33.6204 38.7766L21.4329 22.4266L21.3876 22.3672L12.1142 9.92974C11.8625 9.6088 11.4954 9.39896 11.0912 9.34503C10.6869 9.2911 10.2776 9.39735 9.95066 9.64109C9.62369 9.88484 9.40498 10.2468 9.34124 10.6496C9.27749 11.0524 9.37375 11.4641 9.60947 11.7969L12.3079 15.4157C9.64008 16.7067 7.2041 18.4299 5.09853 20.5157C4.80431 20.8078 4.63819 21.2049 4.63673 21.6195C4.63526 22.0342 4.79857 22.4324 5.09072 22.7266C5.38287 23.0208 5.77994 23.187 6.19457 23.1884C6.6092 23.1899 7.00744 23.0266 7.30166 22.7344C9.30563 20.7506 11.6469 19.1395 14.2157 17.9766L17.5704 22.4766C15.1688 23.3791 12.9878 24.7844 11.1735 26.5985C11.0243 26.7426 10.9053 26.915 10.8234 27.1057C10.7415 27.2963 10.6984 27.5013 10.6966 27.7088C10.6948 27.9163 10.7343 28.122 10.8129 28.314C10.8914 28.5061 11.0075 28.6805 11.1542 28.8272C11.3009 28.9739 11.4753 29.09 11.6674 29.1685C11.8594 29.2471 12.0651 29.2866 12.2726 29.2848C12.4801 29.283 12.6851 29.2399 12.8757 29.158C13.0664 29.0761 13.2388 28.9571 13.3829 28.8079C15.1056 27.095 17.2229 25.8319 19.5485 25.1297L23.1282 29.9297C20.9009 30.1133 18.8134 31.0903 17.2454 32.6829C16.9691 32.9802 16.8193 33.3734 16.8278 33.7793C16.8363 34.1851 17.0025 34.5717 17.291 34.8572C17.5796 35.1427 17.9679 35.3047 18.3738 35.3089C18.7797 35.3131 19.1713 35.1592 19.4657 34.8797C20.0488 34.287 20.7445 33.8168 21.5119 33.4966C22.2793 33.1765 23.103 33.013 23.9345 33.0157C24.522 33.0157 25.0798 33.1141 25.6157 33.2657L31.1157 40.6438C31.2612 40.8394 31.4505 40.9982 31.6684 41.1075C31.8862 41.2168 32.1267 41.2737 32.3704 41.2735Z" fill="white"/>
</svg>
