<svg width="50" height="50" viewBox="0 0 50 50" fill="none" xmlns="http://www.w3.org/2000/svg">
<g clip-path="url(#clip0_214_66)">
<path d="M49.9805 21.911L48.817 6.77941C48.5855 3.76779 46.2316 1.41408 43.2201 1.18254L28.0886 0.018965C26.2642 -0.121172 24.6162 0.488496 23.3226 1.78225L1.7125 23.3923C0.608203 24.4966 0 25.9693 0 27.5392C0 29.109 0.608203 30.5818 1.7125 31.6861L18.3135 48.287C19.4568 49.4305 20.9583 50.0021 22.4604 50.0021C23.9619 50.0021 25.4641 49.4303 26.6072 48.287L48.2174 26.677C49.5111 25.3831 50.1208 23.7351 49.9805 21.911ZM46.0076 24.4673L24.3976 46.0774C23.3293 47.1455 21.5913 47.1453 20.5232 46.0774L3.92227 29.4764C3.40811 28.9622 3.125 28.2742 3.125 27.5392C3.125 26.804 3.40811 26.116 3.92217 25.602L25.5323 3.99191C26.1146 3.40959 26.7868 3.12434 27.5805 3.12434C27.6701 3.12437 27.7597 3.12785 27.849 3.13479L42.9806 4.29836C44.4444 4.41076 45.5887 5.555 45.7012 7.01887L46.8647 22.1505C46.9349 23.0626 46.6545 23.8204 46.0076 24.4673ZM36.5961 7.46652C33.3225 7.46652 30.6592 10.1298 30.6592 13.4034C30.6592 16.6771 33.3225 19.3404 36.5961 19.3404C39.8697 19.3404 42.533 16.6771 42.533 13.4034C42.533 10.1298 39.8697 7.46652 36.5961 7.46652ZM36.5961 16.2154C35.0456 16.2154 33.7842 14.9539 33.7842 13.4034C33.7842 11.8529 35.0456 10.5915 36.5961 10.5915C38.1466 10.5915 39.408 11.8529 39.408 13.4034C39.408 14.9539 38.1466 16.2154 36.5961 16.2154Z" fill="white"/>
</g>
<defs>
<clipPath id="clip0_214_66">
<rect width="50" height="50" fill="white"/>
</clipPath>
</defs>
</svg>
