<svg width="50" height="50" viewBox="0 0 50 50" fill="none" xmlns="http://www.w3.org/2000/svg">
<mask id="mask0_214_95" style="mask-type:luminance" maskUnits="userSpaceOnUse" x="0" y="0" width="51" height="51">
<path d="M49.251 49.2515V0.750488H0.75V49.2515H49.251Z" fill="white" stroke="white" stroke-width="1.5"/>
</mask>
<g mask="url(#mask0_214_95)">
<path d="M27.6317 34.865C27.6317 36.3117 26.4589 37.4846 25.0121 37.4846C23.5653 37.4846 22.3926 36.3117 22.3926 34.865C22.3926 33.4182 23.5653 32.2454 25.0121 32.2454C26.4589 32.2454 27.6317 33.4182 27.6317 34.865Z" stroke="white" stroke-width="1.5" stroke-miterlimit="10" stroke-linecap="round" stroke-linejoin="round"/>
<path d="M12.1367 36.7771V43.0769" stroke="white" stroke-width="1.5" stroke-miterlimit="10" stroke-linecap="round" stroke-linejoin="round"/>
<path d="M37.8895 43.0769V28.8174C37.8895 27.5293 36.8454 26.4916 35.5636 26.4916H14.4626C13.1781 26.4916 12.1367 27.5329 12.1367 28.8174V33.3121" stroke="white" stroke-width="1.5" stroke-miterlimit="10" stroke-linecap="round" stroke-linejoin="round"/>
<path d="M40.1485 45.8584C40.6621 45.321 40.9484 44.606 40.9474 43.8625C40.9474 43.7593 40.9271 43.6572 40.8876 43.5618C40.8481 43.4665 40.7902 43.3799 40.7172 43.3069C40.6442 43.2339 40.5576 43.176 40.4623 43.1366C40.3669 43.0971 40.2647 43.0768 40.1615 43.0768H9.86389C9.65549 43.0768 9.45563 43.1596 9.30827 43.3069C9.16091 43.4543 9.07813 43.6541 9.07813 43.8625C9.07709 44.6059 9.36326 45.321 9.87688 45.8584" stroke="white" stroke-width="1.5" stroke-miterlimit="10" stroke-linecap="round" stroke-linejoin="round"/>
<path d="M47.5225 45.8585H2.47876C1.53684 45.8585 0.773438 46.6219 0.773438 47.5637C0.773438 48.5055 1.53684 49.269 2.47876 49.269H47.5225C48.4644 49.269 49.2278 48.5055 49.2278 47.5637C49.2278 46.6219 48.4644 45.8585 47.5225 45.8585Z" stroke="white" stroke-width="1.5" stroke-miterlimit="10" stroke-linecap="round" stroke-linejoin="round"/>
<path d="M34.3776 5.6678C34.3776 5.6678 34.3769 5.6678 34.3769 5.16095C34.3769 2.71498 32.393 0.732404 29.9469 0.732501L21.7142 0.732696C21.3736 0.732734 21.0394 0.825807 20.7477 1.00187C20.4561 1.17794 20.218 1.43031 20.0593 1.73175L20.0594 1.75167C20.0594 2.42913 19.5163 2.87055 18.847 2.76615C17.1285 2.49827 15.6475 3.81989 15.6475 5.48742V11.6177C15.7254 11.6049 15.8054 11.5982 15.8869 11.5982H16.9241C17.7063 11.5982 18.3814 11.0019 18.4269 10.2211C18.4317 10.138 18.4297 8.64679 18.4297 8.65656C18.4297 7.78514 19.1363 7.07848 20.0077 7.07848H20.3474C21.8547 7.07848 22.5899 7.89569 25.0911 7.89569C25.8314 7.89569 26.5682 7.81044 27.2871 7.64227V7.6411C28.3561 7.39226 28.7582 7.07848 29.8346 7.07848H30.0186C30.8901 7.07848 31.5966 7.78514 31.5966 8.65656C31.5966 10.2462 31.5951 10.1563 31.6004 10.2349C31.6519 11.01 32.3251 11.5982 33.102 11.5982H34.1395C34.2209 11.5982 34.3009 11.6049 34.379 11.6176C34.379 11.6176 34.3776 11.6176 34.3776 9.16028" stroke="white" stroke-width="1.5" stroke-miterlimit="10" stroke-linecap="round" stroke-linejoin="round"/>
<path d="M16.9235 11.5989H16.8809L16.8822 16.1735C16.9581 19.7078 19.2934 22.3783 22.3703 23.6426L22.3708 23.6423C23.1588 23.9663 24.0378 24.1793 25.0122 24.1902C28.3356 24.1532 33.0346 21.1775 33.142 16.1735L33.1436 11.5989H33.1005" stroke="white" stroke-width="1.5" stroke-miterlimit="10" stroke-linecap="round" stroke-linejoin="round"/>
<path d="M15.8868 11.5984C15.074 11.5984 14.415 12.2574 14.415 13.0702V14.7012C14.415 15.5141 15.074 16.1731 15.8868 16.1731H16.8825" stroke="white" stroke-width="1.5" stroke-miterlimit="10" stroke-linecap="round" stroke-linejoin="round"/>
<path d="M33.1426 16.173V16.1731H34.1384C34.9512 16.1731 35.6103 15.5141 35.6103 14.7013V13.0703C35.6103 12.2574 34.9512 11.5984 34.1384 11.5984" stroke="white" stroke-width="1.5" stroke-miterlimit="10" stroke-linecap="round" stroke-linejoin="round"/>
<path d="M43.3399 45.8584L45.379 43.8955C45.8367 43.4551 46.1637 42.8967 46.3239 42.2821C46.4842 41.6675 46.4714 41.0206 46.2872 40.4127L43.7655 32.0962C43.4251 30.9732 42.7773 29.9678 41.8954 29.1937C41.0135 28.4195 39.9327 27.9075 38.775 27.7155L37.4814 27.5007" stroke="white" stroke-width="1.5" stroke-miterlimit="10" stroke-linecap="round" stroke-linejoin="round"/>
<path d="M12.5442 27.5007L11.2502 27.7154C10.0926 27.9075 9.01173 28.4195 8.12981 29.1937C7.2479 29.9678 6.60008 30.9732 6.25957 32.0962L3.73811 40.4127C3.5538 41.0206 3.54108 41.6675 3.70133 42.2821C3.86159 42.8967 4.1886 43.4551 4.64624 43.8955L6.68536 45.8584" stroke="white" stroke-width="1.5" stroke-miterlimit="10" stroke-linecap="round" stroke-linejoin="round"/>
<path d="M31.4119 26.4915C30.954 26.393 30.5394 26.151 30.2287 25.8006C29.9179 25.4502 29.7271 25.0097 29.6841 24.5434L29.5088 22.6404" stroke="white" stroke-width="1.5" stroke-miterlimit="10" stroke-linecap="round" stroke-linejoin="round"/>
<path d="M20.5159 22.6459L20.3411 24.5434C20.2981 25.0098 20.1073 25.4503 19.7966 25.8007C19.4858 26.1511 19.0712 26.3931 18.6133 26.4915" stroke="white" stroke-width="1.5" stroke-miterlimit="10" stroke-linecap="round" stroke-linejoin="round"/>
</g>
</svg>
