<svg width="50" height="50" viewBox="0 0 50 50" fill="none" xmlns="http://www.w3.org/2000/svg">
<path d="M12.0703 32.1562C11.915 32.3622 11.8311 32.6132 11.8311 32.8711C11.8311 33.129 11.915 33.38 12.0703 33.5859C12.3047 33.8906 17.875 41.0469 25 41.0469C32.125 41.0469 37.6953 33.8906 37.9297 33.5937C38.085 33.3878 38.169 33.1368 38.169 32.8789C38.169 32.621 38.085 32.37 37.9297 32.1641C37.6953 31.8594 32.125 24.7031 25 24.7031C17.875 24.7031 12.3047 31.8516 12.0703 32.1562ZM35.4609 32.875C33.9453 34.5703 29.7578 38.7031 25 38.7031C20.2422 38.7031 16.0547 34.5703 14.5391 32.875C16.0547 31.1719 20.2422 27.0391 25 27.0391C29.7578 27.0391 33.9453 31.1719 35.4609 32.875Z" fill="white"/>
<path d="M20.6172 32.875C20.6187 33.7415 20.8771 34.5881 21.3596 35.3078C21.8421 36.0275 22.5272 36.5881 23.3282 36.9186C24.1292 37.2491 25.0102 37.3348 25.8598 37.1648C26.7095 36.9948 27.4897 36.5768 28.1019 35.9635C28.714 35.3503 29.1307 34.5693 29.2992 33.7194C29.4676 32.8694 29.3804 31.9886 29.0484 31.1882C28.7165 30.3878 28.1547 29.7037 27.4341 29.2225C26.7136 28.7412 25.8665 28.4844 25 28.4844C23.8369 28.4864 22.7221 28.9499 21.9004 29.7731C21.0787 30.5963 20.6172 31.7119 20.6172 32.875ZM27.0391 32.875C27.0375 33.278 26.9166 33.6714 26.6916 34.0057C26.4666 34.34 26.1476 34.6001 25.7749 34.7533C25.4022 34.9064 24.9925 34.9457 24.5974 34.8661C24.2024 34.7866 23.8398 34.5917 23.5554 34.3063C23.271 34.0208 23.0776 33.6575 22.9996 33.2621C22.9215 32.8668 22.9624 32.4572 23.1169 32.0851C23.2715 31.7129 23.5328 31.3949 23.868 31.1712C24.2031 30.9475 24.597 30.8281 25 30.8281C25.5415 30.8302 26.0601 31.0468 26.4423 31.4304C26.8245 31.814 27.0391 32.3335 27.0391 32.875Z" fill="white"/>
<path d="M43.3359 13.3281L32.3203 2.34375C32.2108 2.23055 32.0797 2.14044 31.9348 2.07871C31.7899 2.01699 31.6341 1.98492 31.4766 1.98438H10.2109C9.17494 1.98438 8.18137 2.39593 7.4488 3.12849C6.71624 3.86105 6.30469 4.85462 6.30469 5.89062V44.1719C6.30469 45.2079 6.71624 46.2014 7.4488 46.934C8.18137 47.6666 9.17494 48.0781 10.2109 48.0781H39.7891C40.8251 48.0781 41.8186 47.6666 42.5512 46.934C43.2838 46.2014 43.6953 45.2079 43.6953 44.1719V14.1719C43.6335 13.8693 43.5112 13.5824 43.3359 13.3281ZM32.6484 5.96094L39.6797 12.9922H32.6484V5.96094ZM41.3516 44.1406C41.3516 44.555 41.1869 44.9525 40.8939 45.2455C40.6009 45.5385 40.2035 45.7031 39.7891 45.7031H10.2109C9.79654 45.7031 9.39911 45.5385 9.10608 45.2455C8.81306 44.9525 8.64844 44.555 8.64844 44.1406V5.85938C8.64844 5.44497 8.81306 5.04755 9.10608 4.75452C9.39911 4.46149 9.79654 4.29688 10.2109 4.29688H30.3047V14.1719C30.3047 14.4827 30.4282 14.7807 30.6479 15.0005C30.8677 15.2203 31.1658 15.3437 31.4766 15.3437H41.3516V44.1406Z" fill="white"/>
</svg>
