<svg width="83" height="83" viewBox="0 0 83 83" fill="none" xmlns="http://www.w3.org/2000/svg">
<g clip-path="url(#clip0_214_171)">
<path d="M32.9862 82.1575C34.0756 82.6231 35.3423 82.2344 35.9786 81.2292L64.9308 35.2274C65.1613 34.8624 65.2896 34.4422 65.3025 34.0107C65.3153 33.5792 65.2121 33.1521 65.0037 32.774C64.7953 32.396 64.4893 32.0807 64.1176 31.8612C63.7458 31.6417 63.322 31.5258 62.8903 31.5259H43.5676L50.7539 3.00648C51.0437 1.85435 50.457 0.664411 49.3661 0.195546C48.2823 -0.270906 47.0076 0.120109 46.3737 1.12379L17.4215 47.1256C17.1911 47.4907 17.0627 47.9108 17.0499 48.3423C17.0371 48.7739 17.1402 49.2009 17.3487 49.579C17.5571 49.957 17.8631 50.2723 18.2348 50.4918C18.6065 50.7114 19.0303 50.8272 19.462 50.8272H38.7847L31.5985 79.3465C31.3086 80.4988 31.8952 81.6886 32.9862 82.1575Z" fill="#D0823C"/>
</g>
<defs>
<clipPath id="clip0_214_171">
<rect width="82.3529" height="82.3529" fill="white"/>
</clipPath>
</defs>
</svg>
