<svg width="110" height="110" viewBox="0 0 110 110" fill="none" xmlns="http://www.w3.org/2000/svg">
<circle cx="55" cy="55" r="55" fill="black"/>
<path d="M82.8176 93.2102L81.9564 93.8129L76.4702 90.2838L76.4004 90.3327L77.8366 96.6959L76.9754 97.2986L72.8056 91.3399L73.4806 90.8675L76.6487 95.3947L76.7068 95.354L75.4009 89.5238L76.0526 89.0677L81.0827 92.2918L81.1409 92.2511L77.9729 87.7239L78.6479 87.2516L82.8176 93.2102ZM69.8717 92.6681C70.1885 92.5298 70.502 92.4639 70.8123 92.4705C71.1235 92.4792 71.4048 92.5643 71.6562 92.7258C71.9085 92.8895 72.1057 93.134 72.2478 93.4595C72.3729 93.7458 72.4178 94.0026 72.3827 94.2298C72.3485 94.4591 72.2593 94.666 72.1151 94.8504C71.9709 95.0348 71.7958 95.2017 71.5897 95.3511C71.3825 95.5036 71.1695 95.6457 70.9506 95.7775C70.6639 95.9491 70.4304 96.086 70.2502 96.1879C70.0688 96.293 69.9455 96.3894 69.8806 96.4772C69.8134 96.566 69.8068 96.6722 69.8608 96.7958L69.8722 96.8219C70.0124 97.143 70.2092 97.3541 70.4627 97.4553C70.7139 97.5574 71.0164 97.5312 71.37 97.3768C71.7367 97.2167 71.9891 97.0108 72.1272 96.7593C72.2654 96.5078 72.337 96.2725 72.342 96.0533L73.1847 95.9953C73.1872 96.3559 73.1169 96.6682 72.9738 96.9321C72.8295 97.1992 72.643 97.4228 72.4142 97.6028C72.1842 97.7859 71.9433 97.9324 71.6916 98.0423C71.5311 98.1124 71.3382 98.1734 71.1128 98.2253C70.8863 98.2804 70.6498 98.2919 70.4034 98.26C70.1548 98.2291 69.9137 98.1238 69.6803 97.9442C69.4469 97.7645 69.2434 97.4762 69.0701 97.0792L67.6318 93.7858L68.3998 93.4504L68.6954 94.1273L68.7345 94.1102C68.7392 93.979 68.7753 93.825 68.8428 93.6483C68.9103 93.4716 69.0259 93.2958 69.1898 93.1209C69.3537 92.946 69.581 92.7951 69.8717 92.6681ZM70.0558 93.4092C69.7521 93.5418 69.5222 93.7133 69.366 93.9236C69.2076 94.1348 69.1165 94.358 69.0927 94.5932C69.0666 94.8293 69.0991 95.0515 69.19 95.2598L69.497 95.9627C69.5125 95.9095 69.5684 95.8424 69.6649 95.7615C69.7601 95.6838 69.8741 95.6017 70.0069 95.5153C70.1384 95.432 70.2676 95.3524 70.3946 95.2763C70.5203 95.2033 70.622 95.1434 70.6997 95.0965C70.8879 94.9833 71.056 94.8595 71.204 94.7251C71.3508 94.5939 71.4522 94.4476 71.5083 94.2861C71.5632 94.1278 71.548 93.9511 71.4627 93.7558C71.3462 93.489 71.1593 93.3303 70.9022 93.2798C70.6439 93.2325 70.3618 93.2756 70.0558 93.4092ZM64.0273 94.7461C64.5215 94.6145 64.9781 94.6179 65.3971 94.7562C65.8161 94.8945 66.1762 95.1428 66.4774 95.5011C66.7787 95.8594 66.9993 96.3017 67.1394 96.8279C67.282 97.3632 67.3094 97.8618 67.2218 98.3237C67.1324 98.7885 66.9412 99.1836 66.6481 99.5091C66.3534 99.8375 65.9681 100.065 65.4923 100.192C65.1216 100.29 64.7694 100.311 64.4354 100.253C64.1015 100.195 63.8066 100.067 63.551 99.8708C63.2953 99.6743 63.1007 99.4175 62.9672 99.1002L63.7771 98.8845C63.9028 99.1083 64.0967 99.2845 64.3588 99.4132C64.6193 99.5447 64.9279 99.5629 65.2848 99.4679C65.6005 99.3838 65.8554 99.2278 66.0494 98.9997C66.2418 98.7745 66.3647 98.4956 66.4182 98.1628C66.47 97.833 66.4429 97.469 66.3369 97.071C66.2285 96.6638 66.07 96.3262 65.8615 96.0584C65.6506 95.7911 65.4052 95.6054 65.1251 95.5011C64.8427 95.3975 64.5413 95.3883 64.2211 95.4736C64.0106 95.5296 63.8293 95.6171 63.6772 95.736C63.5252 95.8549 63.4079 95.9988 63.3255 96.1678C63.2431 96.3367 63.2023 96.524 63.2032 96.7295L62.3933 96.9452C62.3562 96.6219 62.3948 96.3115 62.5092 96.014C62.6218 95.7194 62.8062 95.4596 63.0623 95.2346C63.3167 95.0125 63.6384 94.8497 64.0273 94.7461ZM58.1407 99.5031L58.0403 98.7283L61.1957 98.3195L61.2961 99.0942L58.1407 99.5031ZM49.8403 99.4777C49.8698 98.7112 50.0337 98.0541 50.332 97.5065C50.6303 96.9589 51.0266 96.5429 51.5208 96.2587C52.0151 95.9745 52.5721 95.8443 53.1919 95.8682C53.8117 95.892 54.3571 96.0647 54.828 96.3861C55.299 96.7074 55.6621 97.1526 55.9174 97.7216C56.1727 98.2905 56.2855 98.9583 56.256 99.7247C56.2265 100.491 56.0626 101.148 55.7643 101.696C55.466 102.244 55.0698 102.659 54.5755 102.944C54.0813 103.228 53.5242 103.358 52.9044 103.334C52.2846 103.31 51.7393 103.138 51.2683 102.816C50.7974 102.495 50.4343 102.05 50.179 101.481C49.9237 100.912 49.8108 100.244 49.8403 99.4777ZM50.692 99.5105C50.6677 100.14 50.7526 100.675 50.9464 101.116C51.1379 101.557 51.408 101.895 51.7567 102.131C52.103 102.368 52.4961 102.494 52.9361 102.511C53.3761 102.528 53.779 102.432 54.1448 102.223C54.5082 102.015 54.8035 101.698 55.0308 101.273C55.2556 100.848 55.3802 100.321 55.4044 99.6919C55.4286 99.0627 55.345 98.5276 55.1535 98.0866C54.9596 97.6456 54.6895 97.3071 54.3432 97.071C53.9946 96.8349 53.6002 96.7084 53.1602 96.6914C52.7202 96.6745 52.3185 96.7704 51.9551 96.9791C51.5893 97.1877 51.294 97.5044 51.0691 97.9293C50.8419 98.3542 50.7162 98.8812 50.692 99.5105ZM47.1064 98.6686L47.8291 95.4679L48.6466 95.6525L47.4452 100.973L46.6554 100.795L46.8431 99.9634L46.7739 99.9478C46.5881 100.19 46.3498 100.364 46.0587 100.471C45.7672 100.58 45.4205 100.589 45.0186 100.498C44.6584 100.417 44.3599 100.272 44.1231 100.063C43.8857 99.8562 43.7256 99.5871 43.6428 99.2553C43.5594 98.9258 43.5689 98.5347 43.6711 98.0821L44.4345 94.7013L45.252 94.8859L44.5011 98.2113C44.4067 98.6293 44.4417 98.9794 44.6061 99.2617C44.77 99.5462 45.0413 99.7313 45.42 99.8168C45.681 99.8757 45.927 99.8718 46.1581 99.8051C46.3868 99.7378 46.5846 99.6089 46.7514 99.4184C46.9182 99.228 47.0365 98.978 47.1064 98.6686ZM39.7765 100.868L42.1802 94.0039L42.9712 94.2809L40.5674 101.145L39.7765 100.868ZM41.1496 91.3424C41.278 91.4032 41.3875 91.468 41.4779 91.537C41.5694 91.6039 41.6298 91.656 41.6592 91.6935L41.1507 92.2701C40.9889 92.1359 40.8344 92.0418 40.6871 91.9878C40.5398 91.9338 40.3847 91.9377 40.2219 91.9995C40.058 92.0581 39.8708 92.1908 39.6603 92.3977L39.3368 92.716L38.8148 98.5349L37.9931 98.146L38.4912 93.5731L38.4399 93.5488L35.2197 96.8337L34.398 96.4448L39.1641 91.7857C39.3788 91.5756 39.5951 91.42 39.8132 91.3189C40.0323 91.2157 40.2531 91.167 40.4756 91.1727C40.696 91.1775 40.9207 91.2341 41.1496 91.3424Z" fill="white"/>
<path d="M16.5268 83.1949L15.9379 82.3243L19.5534 76.8946L19.5057 76.824L13.1205 78.1593L12.5315 77.2886L18.5555 73.2138L19.0171 73.8962L14.4403 76.9921L14.4801 77.051L20.3303 75.8375L20.776 76.4964L17.4726 81.4748L17.5124 81.5336L22.0892 78.4377L22.5508 79.1201L16.5268 83.1949ZM17.2739 70.2592C17.4072 70.5781 17.4681 70.8927 17.4566 71.2028C17.443 71.5139 17.3534 71.7938 17.188 72.0425C17.0203 72.2922 16.7727 72.4855 16.445 72.6225C16.1567 72.743 15.8993 72.7839 15.6727 72.7452C15.4439 72.7073 15.2385 72.6149 15.0564 72.4678C14.8743 72.3206 14.7102 72.1429 14.5641 71.9345C14.4149 71.7249 14.2762 71.5096 14.1479 71.2887C13.9808 70.9993 13.8477 70.7637 13.7486 70.5819C13.6464 70.3988 13.5519 70.2741 13.4652 70.2077C13.3775 70.1392 13.2714 70.1309 13.1469 70.1829L13.1207 70.1939C12.7974 70.329 12.5832 70.5225 12.478 70.7743C12.3719 71.0239 12.3933 71.3267 12.5421 71.6827C12.6964 72.0519 12.8982 72.3075 13.1475 72.4497C13.3968 72.5918 13.631 72.6671 13.85 72.6756L13.8947 73.5191C13.5341 73.5158 13.223 73.4406 12.9613 73.2934C12.6965 73.1449 12.476 72.9548 12.2996 72.7232C12.1202 72.4903 11.9775 72.2472 11.8716 71.9938C11.804 71.8322 11.7461 71.6383 11.6977 71.4122C11.6463 71.1848 11.6385 70.9481 11.6743 70.7022C11.7092 70.4541 11.8183 70.2148 12.0016 69.9843C12.1849 69.7537 12.4764 69.5549 12.8761 69.3878L16.1919 68.0019L16.5151 68.7751L15.8336 69.06L15.85 69.0993C15.9811 69.1061 16.1345 69.1446 16.3102 69.2149C16.4858 69.2852 16.6597 69.4036 16.832 69.5702C17.0043 69.7369 17.1516 69.9665 17.2739 70.2592ZM16.53 70.4316C16.4022 70.1258 16.2344 69.8931 16.0266 69.7337C15.8179 69.572 15.5962 69.4774 15.3614 69.4498C15.1258 69.42 14.9031 69.4489 14.6934 69.5366L13.9857 69.8324C14.0387 69.8487 14.1048 69.9057 14.1842 70.0034C14.2604 70.0998 14.3407 70.2151 14.4249 70.3492C14.5061 70.4821 14.5838 70.6126 14.6578 70.7407C14.7288 70.8676 14.7871 70.9702 14.8327 71.0486C14.9429 71.2386 15.064 71.4087 15.1961 71.5588C15.325 71.7076 15.4697 71.8113 15.6302 71.87C15.7876 71.9274 15.9646 71.915 16.1612 71.8328C16.4298 71.7205 16.5914 71.5362 16.646 71.2799C16.6974 71.0223 16.6588 70.7396 16.53 70.4316ZM15.2888 64.3827C15.4125 64.8788 15.4019 65.3353 15.257 65.7521C15.1121 66.1688 14.8581 66.525 14.495 66.8205C14.132 67.116 13.6863 67.3296 13.158 67.4614C12.6205 67.5955 12.1215 67.615 11.6611 67.52C11.1977 67.4233 10.8057 67.2258 10.4849 66.9277C10.1612 66.6278 9.93979 66.2389 9.82062 65.7611C9.72781 65.389 9.71308 65.0364 9.77642 64.7035C9.83977 64.3705 9.97171 64.0777 10.1722 63.8252C10.3728 63.5726 10.6327 63.3822 10.952 63.2537L11.1548 64.0669C10.9291 64.189 10.7498 64.3802 10.6171 64.6402C10.4814 64.8985 10.4583 65.2068 10.5477 65.5652C10.6267 65.8822 10.7787 66.1395 11.0037 66.3371C11.2258 66.533 11.5028 66.6604 11.8346 66.7191C12.1636 66.7761 12.5279 66.7548 12.9276 66.6551C13.3365 66.5531 13.6765 66.4 13.9476 66.1958C14.2182 65.9892 14.4078 65.7467 14.5165 65.4683C14.6246 65.1876 14.6385 64.8864 14.5583 64.5648C14.5056 64.3535 14.421 64.1709 14.3045 64.0169C14.1881 63.863 14.046 63.7435 13.8784 63.6584C13.7108 63.5733 13.5242 63.5296 13.3186 63.5272L13.1158 62.714C13.4397 62.682 13.7494 62.7256 14.0451 62.8446C14.3379 62.9619 14.5947 63.1504 14.8156 63.41C15.0337 63.6679 15.1914 63.9922 15.2888 64.3827ZM10.6257 58.4214L11.4019 58.3333L11.7607 61.4948L10.9845 61.5829L10.6257 58.4214ZM10.7825 50.1225C11.5484 50.1641 12.2028 50.3384 12.7457 50.6453C13.2885 50.9522 13.6981 51.3551 13.9745 51.8538C14.2508 52.3524 14.3722 52.9115 14.3385 53.5308C14.3048 54.1502 14.1236 54.6927 13.7947 55.1585C13.4659 55.6243 13.0151 55.9803 12.4421 56.2266C11.8692 56.4728 11.1998 56.5751 10.4339 56.5335C9.66796 56.4918 9.01358 56.3175 8.47074 56.0106C7.92789 55.7037 7.51829 55.3009 7.24193 54.8022C6.96557 54.3035 6.84424 53.7445 6.87792 53.1251C6.9116 52.5058 7.09285 51.9632 7.42166 51.4974C7.75047 51.0316 8.20134 50.6756 8.77427 50.4294C9.3472 50.1831 10.0166 50.0808 10.7825 50.1225ZM10.7362 50.9735C10.1074 50.9393 9.57102 51.0156 9.12698 51.2025C8.68307 51.387 8.3403 51.6517 8.09868 51.9966C7.85718 52.3391 7.72448 52.7302 7.70057 53.1698C7.67666 53.6095 7.7661 54.0139 7.96889 54.3829C8.17182 54.7496 8.48386 55.0499 8.90502 55.2838C9.32631 55.5154 9.85135 55.6482 10.4802 55.6824C11.109 55.7166 11.6453 55.6415 12.0892 55.457C12.5333 55.2701 12.876 55.0054 13.1175 54.6629C13.3592 54.3181 13.4919 53.9258 13.5158 53.4861C13.5398 53.0464 13.4502 52.6432 13.2473 52.2765C13.0445 51.9075 12.7325 51.6072 12.3112 51.3757C11.89 51.1417 11.3651 51.0077 10.7362 50.9735ZM11.6348 47.4017L14.8237 48.1751L14.6261 48.9895L9.32525 47.7039L9.51608 46.9171L10.3443 47.118L10.3611 47.0489C10.122 46.8594 9.95151 46.6183 9.84954 46.3256C9.74526 46.0324 9.74167 45.6856 9.83876 45.2852C9.9258 44.9263 10.0756 44.6301 10.2881 44.3967C10.4983 44.1626 10.77 44.0068 11.1031 43.9293C11.4338 43.8511 11.8247 43.8667 12.2756 43.9761L15.6439 44.793L15.4464 45.6074L12.1333 44.804C11.7169 44.703 11.3662 44.7324 11.0814 44.8923C10.7943 45.0517 10.605 45.32 10.5135 45.6974C10.4504 45.9573 10.4504 46.2034 10.5135 46.4355C10.5771 46.6653 10.7029 46.8651 10.8907 47.0349C11.0785 47.2047 11.3265 47.3269 11.6348 47.4017ZM9.55191 40.0379L16.377 42.55L16.0875 43.3365L9.26242 40.8244L9.55191 40.0379ZM19.0544 41.5617C18.9917 41.6892 18.9251 41.7976 18.8546 41.8869C18.7864 41.9773 18.7332 42.0369 18.6953 42.0657L18.1269 41.5481C18.2636 41.3885 18.3601 41.2355 18.4164 41.089C18.4727 40.9426 18.4713 40.7875 18.4121 40.6237C18.3561 40.4589 18.2264 40.2696 18.0229 40.0559L17.7097 39.7274L11.8999 39.1133L12.3017 38.2978L16.8662 38.8683L16.8913 38.8174L13.6578 35.5456L14.0596 34.7301L18.6426 39.5694C18.8493 39.7874 19.0014 40.0062 19.0991 40.2259C19.1988 40.4466 19.244 40.6681 19.2348 40.8905C19.2265 41.1108 19.1664 41.3345 19.0544 41.5617Z" fill="white"/>
<path d="M27.7142 17.0231L28.5801 16.4272L34.0386 19.9991L34.1088 19.9508L32.7224 13.5765L33.5883 12.9806L37.7113 18.9717L37.0327 19.4387L33.9001 14.8869L33.8416 14.9272L35.102 20.7675L34.4467 21.2184L29.4419 17.9551L29.3834 17.9953L32.516 22.5471L31.8373 23.0142L27.7142 17.0231ZM40.6564 17.6676C40.3385 17.8033 40.0244 17.8665 39.7142 17.8573C39.4031 17.8459 39.1225 17.7584 38.8725 17.5948C38.6216 17.429 38.4265 17.1828 38.2871 16.8562C38.1645 16.5688 38.1217 16.3116 38.1587 16.0848C38.1949 15.8557 38.2858 15.6496 38.4316 15.4664C38.5774 15.2833 38.7539 15.1179 38.9612 14.9702C39.1697 14.8195 39.3839 14.6792 39.6039 14.5493C39.8921 14.38 40.1267 14.2452 40.3077 14.1447C40.4901 14.0412 40.6141 13.9458 40.6798 13.8586C40.7477 13.7704 40.7552 13.6643 40.7023 13.5401L40.6911 13.514C40.5536 13.1917 40.3586 12.9789 40.106 12.8756C39.8556 12.7714 39.553 12.795 39.198 12.9465C38.83 13.1035 38.5759 13.3071 38.4356 13.5575C38.2953 13.8078 38.2217 14.0425 38.2149 14.2617L37.3717 14.3125C37.3723 13.9519 37.4452 13.6403 37.5905 13.3775C37.7371 13.1116 37.9255 12.8897 38.1558 12.7116C38.3874 12.5305 38.6295 12.386 38.882 12.2782C39.0432 12.2095 39.2366 12.1501 39.4624 12.1001C39.6894 12.047 39.926 12.0374 40.1721 12.0714C40.4205 12.1044 40.6606 12.2118 40.8925 12.3934C41.1244 12.575 41.3254 12.865 41.4954 13.2635L42.9057 16.569L42.1349 16.8979L41.845 16.2185L41.8058 16.2352C41.8 16.3664 41.7626 16.52 41.6936 16.6962C41.6246 16.8723 41.5075 17.0471 41.3421 17.2206C41.1768 17.3941 40.9482 17.5431 40.6564 17.6676ZM40.4786 16.925C40.7834 16.795 41.0148 16.6254 41.1728 16.4165C41.3329 16.2066 41.4259 15.9842 41.4517 15.7492C41.4798 15.5133 41.4492 15.2909 41.36 15.0818L41.059 14.3763C41.0431 14.4294 40.9866 14.496 40.8894 14.5761C40.7936 14.653 40.6789 14.7341 40.5454 14.8194C40.4131 14.9015 40.2832 14.9801 40.1557 15.0552C40.0293 15.1271 39.9271 15.1861 39.849 15.2323C39.6598 15.3439 39.4907 15.4663 39.3416 15.5994C39.1937 15.7294 39.091 15.8749 39.0336 16.0358C38.9774 16.1936 38.9911 16.3705 39.0747 16.5665C39.189 16.8343 39.3744 16.9946 39.6311 17.0472C39.8891 17.0968 40.1715 17.056 40.4786 16.925ZM46.5197 15.6411C46.0243 15.7681 45.5678 15.7605 45.1501 15.6183C44.7324 15.4761 44.3746 15.2245 44.0767 14.8634C43.7788 14.5023 43.5622 14.058 43.427 13.5306C43.2894 12.994 43.2666 12.4951 43.3585 12.0341C43.4522 11.5701 43.6471 11.1768 43.9431 10.854C44.2409 10.5284 44.6283 10.3044 45.1053 10.1821C45.4768 10.0869 45.8292 10.0698 46.1627 10.131C46.4961 10.1921 46.7897 10.3221 47.0435 10.521C47.2974 10.7199 47.4896 10.9785 47.6201 11.297L46.8083 11.5051C46.6846 11.2802 46.4923 11.1022 46.2314 10.9712C45.9723 10.8372 45.6638 10.8161 45.306 10.9078C44.9896 10.989 44.7333 11.1427 44.5371 11.369C44.3426 11.5923 44.2171 11.8701 44.1606 12.2024C44.1057 12.5317 44.1294 12.8959 44.2317 13.2949C44.3364 13.7031 44.4918 14.0421 44.6978 14.3119C44.9061 14.5811 45.1499 14.7691 45.429 14.8759C45.7104 14.9822 46.0116 14.9942 46.3327 14.9118C46.5437 14.8577 46.7258 14.7719 46.8789 14.6545C47.0321 14.537 47.1507 14.3942 47.2346 14.226C47.3186 14.0578 47.3611 13.8709 47.3622 13.6654L48.174 13.4572C48.2081 13.7809 48.1666 14.0909 48.0495 14.3873C47.9342 14.6808 47.7474 14.9389 47.4892 15.1615C47.2327 15.3813 46.9095 15.5411 46.5197 15.6411ZM52.4422 10.931L52.5371 11.7065L49.3789 12.0931L49.284 11.3176L52.4422 10.931ZM60.7511 11.034C60.7141 11.8002 60.5439 12.4556 60.2403 13.0003C59.9367 13.5451 59.5364 13.9571 59.0394 14.2365C58.5424 14.5159 57.9841 14.6407 57.3646 14.6108C56.745 14.5809 56.2014 14.403 55.7336 14.077C55.2658 13.7511 54.907 13.3024 54.6573 12.731C54.4075 12.1596 54.3011 11.4908 54.3381 10.7246C54.3751 9.95849 54.5453 9.30306 54.8489 8.75834C55.1525 8.21362 55.5528 7.80156 56.0498 7.52216C56.5468 7.24275 57.1051 7.11799 57.7246 7.14788C58.3442 7.17777 58.8878 7.35569 59.3556 7.68164C59.8234 8.00759 60.1822 8.45627 60.4319 9.02768C60.6817 9.59909 60.7881 10.2679 60.7511 11.034ZM59.8998 10.993C59.9302 10.364 59.8505 9.82801 59.661 9.38512C59.4737 8.94235 59.207 8.60121 58.8606 8.3617C58.5166 8.12231 58.1247 7.99201 57.6849 7.97079C57.2451 7.94957 56.8413 8.04149 56.4735 8.24654C56.1081 8.45171 55.8097 8.76558 55.5784 9.18817C55.3494 9.61086 55.2197 10.1367 55.1894 10.7657C55.159 11.3947 55.2375 11.9306 55.4247 12.3734C55.6143 12.8163 55.881 13.1574 56.225 13.3968C56.5714 13.6363 56.9644 13.7667 57.4043 13.7879C57.8441 13.8091 58.2467 13.7171 58.6122 13.512C58.9799 13.3069 59.2783 12.993 59.5073 12.5703C59.7386 12.1478 59.8695 11.622 59.8998 10.993ZM63.4767 11.8688L62.7242 15.0626L61.9084 14.8704L63.1595 9.56122L63.9475 9.74691L63.7521 10.5765L63.8212 10.5928C64.0092 10.3525 64.2492 10.1804 64.5412 10.0765C64.8337 9.97033 65.1805 9.96447 65.5815 10.059C65.9409 10.1437 66.2381 10.2915 66.4729 10.5025C66.7083 10.7112 66.8659 10.9818 66.9457 11.3144C67.0259 11.6446 67.0129 12.0356 66.9064 12.4872L66.1115 15.8607L65.2958 15.6685L66.0777 12.3503C66.176 11.9332 66.1442 11.5828 65.9824 11.299C65.8212 11.013 65.5517 10.8254 65.1738 10.7363C64.9134 10.675 64.6673 10.6766 64.4356 10.7412C64.2062 10.8063 64.0073 10.9333 63.8387 11.1223C63.6702 11.3112 63.5495 11.56 63.4767 11.8688ZM70.8032 9.72322L68.3608 16.5736L67.5714 16.2921L70.0138 9.44177L70.8032 9.72322ZM69.3704 19.2415C69.2425 19.1797 69.1336 19.1139 69.0437 19.0442C68.9527 18.9766 68.8927 18.924 68.8636 18.8862L69.3768 18.3138C69.5375 18.4493 69.6912 18.5446 69.8381 18.5998C69.985 18.655 70.1401 18.6523 70.3034 18.5919C70.4678 18.5346 70.656 18.4034 70.8682 18.1983L71.1943 17.8825L71.7632 12.0681L72.5818 12.4636L72.0467 17.0323L72.0979 17.057L75.3444 13.7982L76.163 14.1937L71.3594 18.8142C71.1431 19.0225 70.9254 19.1764 70.7066 19.2757C70.4866 19.3772 70.2654 19.4241 70.043 19.4166C69.8227 19.41 69.5984 19.3517 69.3704 19.2415Z" fill="white"/>
<path d="M92.9754 27.3765L93.5865 28.2317L90.1116 33.7525L90.1612 33.8218L96.51 32.323L97.1211 33.1782L91.2038 37.4065L90.7248 36.7362L95.2205 33.5237L95.1793 33.4659L89.3622 34.8292L88.8997 34.182L92.0741 29.1204L92.0328 29.0626L87.5371 32.2751L87.0581 31.6048L92.9754 27.3765ZM92.5596 40.3281C92.4184 40.0126 92.3497 39.6997 92.3534 39.3894C92.3593 39.0781 92.4418 38.796 92.6009 38.5432C92.7623 38.2894 93.005 38.0899 93.3291 37.9448C93.6143 37.8171 93.8707 37.7698 94.0982 37.8028C94.3278 37.8349 94.5355 37.9222 94.7212 38.0647C94.9069 38.2072 95.0754 38.3808 95.2267 38.5854C95.3811 38.7912 95.5252 39.003 95.6589 39.2206C95.8333 39.5057 95.9722 39.7379 96.0758 39.9172C96.1826 40.0977 96.2801 40.22 96.3685 40.2842C96.4579 40.3505 96.5642 40.3561 96.6873 40.301L96.7132 40.2894C97.033 40.1462 97.2423 39.9474 97.3412 39.6931C97.441 39.4409 97.412 39.1387 97.2543 38.7865C97.0908 38.4213 96.8827 38.1708 96.63 38.035C96.3772 37.8991 96.1412 37.8297 95.922 37.8267L95.8562 36.9846C96.2168 36.9788 96.5297 37.0462 96.7949 37.1868C97.0634 37.3287 97.2886 37.5131 97.4707 37.7403C97.6559 37.9686 97.8047 38.2081 97.9169 38.4587C97.9885 38.6186 98.0512 38.811 98.1052 39.0359C98.1623 39.2619 98.1761 39.4983 98.1465 39.745C98.1178 39.9938 98.0147 40.2358 97.8373 40.4709C97.6598 40.706 97.3733 40.9121 96.9779 41.0891L93.6979 42.5576L93.3554 41.7927L94.0296 41.4909L94.0122 41.452C93.8809 41.4485 93.7266 41.4138 93.5493 41.3479C93.372 41.2821 93.1951 41.168 93.0187 41.0058C92.8423 40.8435 92.6893 40.6176 92.5596 40.3281ZM93.299 40.1371C93.4344 40.4396 93.608 40.668 93.8197 40.8222C94.0324 40.9786 94.2564 41.0677 94.4918 41.0894C94.7282 41.1132 94.9501 41.0788 95.1575 40.9859L95.8576 40.6725C95.8042 40.6575 95.7366 40.6021 95.6549 40.5064C95.5762 40.4119 95.4931 40.2987 95.4055 40.1667C95.321 40.036 95.2401 39.9075 95.1629 39.7812C95.0887 39.6562 95.0279 39.555 94.9803 39.4778C94.8654 39.2906 94.7401 39.1236 94.6043 38.9769C94.4717 38.8313 94.3245 38.7313 94.1626 38.6767C94.0038 38.6232 93.8271 38.6401 93.6327 38.7271C93.3669 38.8461 93.21 39.0344 93.1619 39.292C93.1169 39.5507 93.1626 39.8325 93.299 40.1371ZM94.6895 46.1546C94.5537 45.6616 94.5533 45.205 94.688 44.7848C94.8228 44.3647 95.0681 44.0025 95.4239 43.6982C95.7796 43.394 96.22 43.1696 96.745 43.0251C97.2791 42.8781 97.7775 42.8464 98.2401 42.9302C98.7056 43.0157 99.1023 43.2036 99.4303 43.4939C99.7611 43.7859 99.9919 44.1692 100.123 44.644C100.224 45.0137 100.248 45.3658 100.192 45.7003C100.137 46.0347 100.012 46.3306 99.818 46.5879C99.6237 46.8452 99.3685 47.0419 99.0523 47.1781L98.8299 46.3701C99.0526 46.2425 99.2271 46.0471 99.3536 45.7839C99.4829 45.5224 99.4986 45.2136 99.4005 44.8575C99.3138 44.5425 99.1556 44.289 98.9259 44.0968C98.6991 43.9064 98.4191 43.7858 98.086 43.7351C97.7557 43.6861 97.392 43.7162 96.9949 43.8256C96.5886 43.9374 96.2524 44.0987 95.9863 44.3095C95.7208 44.5226 95.5371 44.7696 95.4352 45.0506C95.334 45.3338 95.3273 45.6352 95.4153 45.9548C95.4731 46.1648 95.5621 46.3453 95.6823 46.4964C95.8025 46.6474 95.9474 46.7635 96.117 46.8445C96.2866 46.9254 96.4742 46.9646 96.6798 46.9621L96.9022 47.7701C96.5792 47.8099 96.2685 47.7739 95.9701 47.6621C95.6746 47.5519 95.4132 47.3697 95.1861 47.1155C94.9618 46.8629 94.7963 46.5426 94.6895 46.1546ZM99.5035 51.993L98.7298 52.1016L98.2875 48.9507L99.0611 48.8421L99.5035 51.993ZM99.5473 60.3024C98.7806 60.279 98.1222 60.1203 97.5722 59.8264C97.0222 59.5325 96.6032 59.1395 96.315 58.6475C96.0269 58.1556 95.8923 57.5996 95.9112 56.9796C95.9302 56.3596 96.0984 55.8129 96.4161 55.3394C96.7337 54.866 97.176 54.4993 97.7429 54.2395C98.3098 53.9797 98.9766 53.8615 99.7433 53.8849C100.51 53.9084 101.168 54.067 101.718 54.3609C102.268 54.6549 102.687 55.0478 102.976 55.5398C103.264 56.0318 103.398 56.5878 103.379 57.2077C103.36 57.8277 103.192 58.3744 102.874 58.8479C102.557 59.3214 102.115 59.688 101.548 59.9478C100.981 60.2076 100.314 60.3258 99.5473 60.3024ZM99.5733 59.4505C100.203 59.4698 100.737 59.3807 101.177 59.1833C101.616 58.9883 101.952 58.7155 102.186 58.365C102.419 58.0169 102.542 57.6227 102.556 57.1826C102.569 56.7424 102.47 56.3403 102.259 55.9762C102.047 55.6145 101.728 55.3217 101.301 55.0979C100.875 54.8764 100.347 54.756 99.7173 54.7368C99.0878 54.7176 98.5534 54.8055 98.114 55.0005C97.6745 55.1979 97.3382 55.4706 97.1049 55.8188C96.8715 56.1693 96.7481 56.5646 96.7347 57.0048C96.7213 57.4449 96.8203 57.8458 97.0319 58.2076C97.2434 58.5717 97.5625 58.8645 97.9892 59.0859C98.4158 59.3098 98.9438 59.4313 99.5733 59.4505ZM98.7608 63.0424L95.5542 62.3464L95.732 61.5274L101.062 62.6844L100.891 63.4756L100.058 63.2948L100.043 63.3642C100.286 63.5479 100.463 63.7848 100.572 64.075C100.683 64.3656 100.695 64.7122 100.608 65.1148C100.529 65.4757 100.387 65.7754 100.18 66.014C99.9753 66.253 99.7075 66.4153 99.3764 66.5009C99.0476 66.587 98.6565 66.5809 98.2031 66.4825L94.816 65.7473L94.9938 64.9283L98.3253 65.6514C98.744 65.7423 99.0939 65.7044 99.3747 65.5376C99.6579 65.3714 99.8407 65.0985 99.923 64.7191C99.9798 64.4577 99.9738 64.2117 99.9052 63.9812C99.836 63.753 99.7055 63.5563 99.5136 63.3911C99.3217 63.2259 99.0708 63.1097 98.7608 63.0424ZM101.035 70.3298L94.1431 68.0088L94.4105 67.2145L101.303 69.5356L101.035 70.3298ZM91.4934 69.0653C91.5529 68.9364 91.6167 68.8263 91.6849 68.7352C91.7508 68.6431 91.8024 68.5822 91.8396 68.5524L92.421 69.0554C92.2884 69.2184 92.1958 69.3738 92.1432 69.5217C92.0906 69.6695 92.096 69.8245 92.1594 69.9867C92.2196 70.1501 92.3541 70.336 92.5629 70.5445L92.8844 70.8649L98.7079 71.331L98.327 72.1565L93.7495 71.7022L93.7257 71.7538L97.0413 74.9423L96.6604 75.7677L91.9558 71.0465C91.7436 70.8339 91.586 70.619 91.4828 70.4019C91.3774 70.1838 91.3266 69.9635 91.3302 69.7409C91.3329 69.5205 91.3872 69.2953 91.4934 69.0653Z" fill="white"/>
<circle cx="88" cy="81.7969" r="1.5" fill="white"/>
<circle cx="28.7539" cy="87.9043" r="1.5" fill="white"/>
<circle cx="22" cy="29.6016" r="1.5" fill="white"/>
<circle cx="81.375" cy="21.7969" r="1.5" fill="white"/>
</svg>
