<svg width="112" height="112" viewBox="0 0 112 112" fill="none" xmlns="http://www.w3.org/2000/svg">
<circle cx="56" cy="55.791" r="55" fill="black"/>
<path d="M63 103.008L61.7393 103.049L58.5361 95.9067L58.4339 95.9101L55.7085 103.248L54.4478 103.29L54.16 94.5673L55.1481 94.5347L55.3668 101.162L55.452 101.159L57.9591 94.442L58.9131 94.4105L61.8575 100.948L61.9427 100.945L61.7241 94.3177L62.7122 94.2851L63 103.008ZM50.3754 93.8923C50.7821 93.9736 51.1359 94.1241 51.4368 94.3436C51.7371 94.5659 51.9555 94.8428 52.092 95.1743C52.2279 95.5086 52.2541 95.8847 52.1705 96.3026C52.0969 96.6703 51.9649 96.9539 51.7743 97.1533C51.5832 97.3555 51.3534 97.4979 51.0848 97.5803C50.8163 97.6628 50.5294 97.7068 50.224 97.7124C49.9154 97.7201 49.6081 97.7137 49.3022 97.6931C48.9022 97.6652 48.5785 97.6396 48.3311 97.6162C48.0804 97.595 47.8929 97.6053 47.7687 97.6471C47.6417 97.6883 47.5623 97.7883 47.5305 97.9471L47.5238 97.9805C47.4413 98.3928 47.4901 98.7357 47.67 99.0093C47.8472 99.2823 48.1628 99.4642 48.6169 99.5551C49.0877 99.6492 49.4774 99.62 49.7861 99.4674C50.0947 99.3147 50.3268 99.1322 50.4822 98.92L51.3514 99.4415C51.1062 99.7981 50.8226 100.057 50.5006 100.219C50.1752 100.382 49.8381 100.474 49.4893 100.494C49.1372 100.517 48.7996 100.496 48.4765 100.431C48.2703 100.39 48.0385 100.317 47.7811 100.214C47.5204 100.112 47.2797 99.9612 47.0591 99.7606C46.8357 99.5595 46.6708 99.2904 46.5644 98.9533C46.458 98.6162 46.4558 98.1928 46.5577 97.683L47.4036 93.4542L48.3898 93.6515L48.2159 94.5207L48.266 94.5307C48.3608 94.4048 48.502 94.278 48.6898 94.1504C48.8775 94.0229 49.1121 93.9293 49.3935 93.8697C49.6748 93.8101 50.0021 93.8176 50.3754 93.8923ZM50.0478 94.748C49.6578 94.67 49.3138 94.6809 49.0157 94.7806C48.7148 94.8798 48.4719 95.0369 48.2869 95.2519C48.0991 95.4664 47.9785 95.7074 47.925 95.9748L47.7445 96.8774C47.7963 96.8356 47.8974 96.808 48.0478 96.7947C48.1949 96.7835 48.3635 96.781 48.5535 96.7871C48.7401 96.7955 48.922 96.8058 49.0992 96.8181C49.273 96.8326 49.4142 96.8434 49.5229 96.8507C49.7859 96.8685 50.0363 96.8621 50.2742 96.8315C50.5088 96.8031 50.7091 96.7287 50.8751 96.6084C51.0378 96.4903 51.1442 96.3059 51.1944 96.0551C51.2629 95.7125 51.188 95.4281 50.9696 95.2019C50.7478 94.9779 50.4406 94.8266 50.0478 94.748ZM43.2386 91.8369C43.8094 92.0621 44.2478 92.3908 44.5538 92.8229C44.8597 93.2551 45.0304 93.7515 45.0658 94.3121C45.1012 94.8727 44.9991 95.457 44.7593 96.0648C44.5154 96.6832 44.1865 97.1841 43.7727 97.5675C43.3551 97.9525 42.8889 98.1977 42.374 98.3031C41.8554 98.41 41.3213 98.3551 40.7716 98.1383C40.3434 97.9694 39.9889 97.738 39.7078 97.4439C39.4268 97.1498 39.2329 96.8168 39.1261 96.4449C39.0194 96.0729 39.0146 95.6863 39.1118 95.2849L40.0474 95.6539C40.0093 95.9595 40.0709 96.2678 40.2323 96.5788C40.3899 96.8914 40.6749 97.129 41.0872 97.2916C41.4519 97.4355 41.8092 97.4665 42.1591 97.3846C42.5053 97.3043 42.8228 97.1226 43.1116 96.8395C43.3967 96.558 43.6299 96.1874 43.8113 95.7275C43.9968 95.2571 44.0844 94.8183 44.074 94.4111C44.0609 94.0028 43.9563 93.6485 43.7602 93.3482C43.5615 93.0469 43.2771 92.8233 42.9071 92.6774C42.664 92.5815 42.4266 92.5367 42.1951 92.5431C41.9635 92.5495 41.7477 92.6049 41.5478 92.7092C41.3478 92.8136 41.175 92.9653 41.0293 93.1644L40.0937 92.7954C40.2884 92.4568 40.5469 92.1847 40.8693 91.9789C41.188 91.7748 41.5511 91.6554 41.9588 91.6208C42.3627 91.5877 42.7893 91.6597 43.2386 91.8369ZM34.1316 92.0755L34.6079 91.268L37.8966 93.2078L37.4204 94.0153L34.1316 92.0755ZM26.3574 85.6701C26.9703 84.9834 27.6239 84.5005 28.3183 84.2217C29.0127 83.9428 29.6972 83.8606 30.3717 83.9752C31.0462 84.0898 31.6611 84.3949 32.2165 84.8905C32.7718 85.3861 33.1446 85.9625 33.3348 86.6197C33.5251 87.2769 33.521 87.9663 33.3226 88.6878C33.1241 89.4094 32.7184 90.1135 32.1056 90.8002C31.4927 91.487 30.839 91.9698 30.1446 92.2487C29.4502 92.5276 28.7657 92.6097 28.0912 92.4951C27.4167 92.3805 26.8018 92.0754 26.2465 91.5798C25.6911 91.0842 25.3183 90.5078 25.1281 89.8506C24.9378 89.1934 24.9419 88.504 25.1404 87.7825C25.3388 87.0609 25.7445 86.3568 26.3574 85.6701ZM27.1204 86.3511C26.6172 86.9149 26.2869 87.4749 26.1293 88.0311C25.9697 88.5855 25.961 89.1051 26.1032 89.5899C26.2433 90.0729 26.5105 90.4903 26.9047 90.8422C27.299 91.194 27.745 91.4132 28.2429 91.4996C28.7386 91.5841 29.2539 91.5166 29.7887 91.2971C30.3214 91.0756 30.8393 90.683 31.3425 90.1192C31.8457 89.5554 32.1771 88.9964 32.3368 88.442C32.4943 87.8858 32.503 87.3662 32.3629 86.8832C32.2206 86.3983 31.9524 85.98 31.5582 85.6281C31.1639 85.2763 30.719 85.0581 30.2232 84.9736C29.7253 84.8872 29.2101 84.9547 28.6774 85.1761C28.1426 85.3956 27.6236 85.7873 27.1204 86.3511ZM24.4244 82.6975L27.6152 80.3903L28.2044 81.2052L22.9003 85.0405L22.331 84.2532L23.1598 83.6539L23.1099 83.5849C22.7506 83.6553 22.3977 83.623 22.0512 83.488C21.7023 83.3546 21.3831 83.0876 21.0934 82.687C20.8337 82.3279 20.6802 81.9604 20.6328 81.5845C20.583 81.2103 20.6525 80.841 20.8413 80.4766C21.0278 80.1139 21.3466 79.7694 21.7979 79.4432L25.1682 77.0062L25.7574 77.8211L22.4424 80.2182C22.0257 80.5195 21.7793 80.8624 21.7033 81.2469C21.625 81.6331 21.7223 82.015 21.9953 82.3925C22.1834 82.6527 22.4079 82.8444 22.6689 82.9677C22.9282 83.0887 23.2084 83.1297 23.5097 83.0906C23.811 83.0516 24.1159 82.9205 24.4244 82.6975ZM16.0454 78.732L23.7209 74.5784L24.1995 75.4628L16.5241 79.6165L16.0454 78.732ZM25.0178 71.4292C25.0785 71.5885 25.1194 71.7356 25.1404 71.8705C25.1641 72.0043 25.173 72.0997 25.1674 72.1566L24.2481 72.2334C24.2195 71.9828 24.1638 71.7729 24.0811 71.6038C23.9984 71.4347 23.8609 71.3092 23.6686 71.2275C23.4779 71.142 23.2056 71.1014 22.8515 71.1057L22.3069 71.1126L17.0208 75.7176L16.6322 74.6982L20.8627 71.1522L20.8384 71.0885L15.321 71.2578L14.9325 70.2384L22.9302 70.1636C23.2906 70.16 23.6072 70.205 23.8801 70.2986C24.1556 70.3913 24.3872 70.5325 24.5751 70.7223C24.762 70.9095 24.9096 71.1452 25.0178 71.4292Z" fill="white"/>
<path d="M11.3034 35.0396L11.9691 33.9682L19.6877 35.272L19.7417 35.1852L15.1535 28.8428L15.8191 27.7714L23.2322 32.3771L22.7104 33.2169L17.0783 29.7176L17.0333 29.79L21.2262 35.6058L20.7224 36.4166L13.651 35.2339L13.606 35.3063L19.2382 38.8056L18.7164 39.6453L11.3034 35.0396ZM25.8818 29.5856C25.5906 29.8809 25.2707 30.0941 24.9221 30.2252C24.5715 30.3542 24.2201 30.3848 23.8681 30.317C23.514 30.2472 23.1853 30.0627 22.8818 29.7635C22.6148 29.5003 22.4502 29.2343 22.388 28.9655C22.3238 28.6948 22.3309 28.4245 22.4093 28.1548C22.4878 27.885 22.6085 27.621 22.7714 27.3627C22.9342 27.1004 23.1082 26.8471 23.2933 26.6027C23.5361 26.2835 23.7352 26.027 23.8905 25.833C24.0458 25.6351 24.14 25.4727 24.1733 25.3459C24.2085 25.2171 24.1685 25.0958 24.0532 24.9821L24.0289 24.9582C23.7295 24.663 23.4161 24.5156 23.0886 24.5159C22.7632 24.5142 22.4379 24.6782 22.1128 25.008C21.7757 25.3499 21.5863 25.6917 21.5445 26.0335C21.5028 26.3753 21.528 26.6694 21.6201 26.9159L20.7072 27.3563C20.5436 26.9557 20.4827 26.5764 20.5243 26.2185C20.566 25.8566 20.6741 25.5244 20.8487 25.2218C21.0233 24.9153 21.2263 24.6446 21.4577 24.41C21.6053 24.2602 21.793 24.1062 22.0209 23.9479C22.2488 23.7856 22.5071 23.6673 22.7958 23.5929C23.0866 23.5165 23.402 23.5263 23.7422 23.6223C24.0824 23.7184 24.4376 23.9489 24.8078 24.3139L27.8788 27.3415L27.1727 28.0577L26.5415 27.4354L26.5056 27.4718C26.5589 27.6201 26.5874 27.8077 26.591 28.0347C26.5946 28.2617 26.5441 28.5091 26.4396 28.777C26.335 29.045 26.1491 29.3145 25.8818 29.5856ZM25.3462 28.8421C25.6254 28.5588 25.8051 28.2653 25.8853 27.9614C25.9675 27.6554 25.9695 27.3661 25.8912 27.0935C25.815 26.8188 25.6797 26.5857 25.4855 26.3943L24.83 25.748C24.8365 25.8143 24.8041 25.914 24.7327 26.047C24.6613 26.1761 24.5709 26.3184 24.4615 26.4738C24.3521 26.6253 24.2437 26.7717 24.1362 26.9131C24.0287 27.0504 23.9421 27.1626 23.8764 27.2494C23.7172 27.4595 23.5851 27.6723 23.4802 27.888C23.3752 28.0997 23.3275 28.308 23.337 28.5128C23.3464 28.7136 23.4422 28.9038 23.6243 29.0833C23.8731 29.3286 24.152 29.4221 24.461 29.3636C24.7699 29.3012 25.065 29.1273 25.3462 28.8421ZM31.5035 24.7268C31.0044 25.0838 30.4904 25.2734 29.9613 25.2955C29.4323 25.3177 28.9228 25.1914 28.4328 24.9166C27.9429 24.6419 27.5078 24.2388 27.1277 23.7073C26.7409 23.1667 26.4989 22.6184 26.4018 22.0627C26.3053 21.503 26.3527 20.9784 26.5439 20.4888C26.7357 19.9953 27.072 19.5766 27.5526 19.2328C27.9269 18.9651 28.3138 18.7931 28.7134 18.7168C29.1129 18.6406 29.4978 18.6587 29.8681 18.771C30.2384 18.8834 30.5657 19.0894 30.8499 19.3891L30.0319 19.9742C29.796 19.7762 29.5036 19.6605 29.1549 19.627C28.8068 19.5896 28.4525 19.6998 28.092 19.9577C27.7732 20.1858 27.5531 20.4689 27.4318 20.8072C27.3112 21.1415 27.2913 21.5068 27.3721 21.903C27.4536 22.2953 27.6382 22.6925 27.9258 23.0945C28.22 23.5058 28.5409 23.8176 28.8884 24.0301C29.2383 24.2409 29.5926 24.3455 29.9512 24.3439C30.3122 24.3407 30.6544 24.2234 30.9779 23.992C31.1905 23.8399 31.357 23.6649 31.4774 23.467C31.5978 23.2691 31.6685 23.0579 31.6895 22.8333C31.7104 22.6087 31.6769 22.3812 31.5889 22.1508L32.4069 21.5657C32.5854 21.9129 32.6735 22.2778 32.6712 22.6602C32.6694 23.0387 32.5724 23.4085 32.3802 23.7696C32.1885 24.1267 31.8963 24.4458 31.5035 24.7268ZM36.1908 16.9284L36.6184 17.7627L33.2206 19.5043L32.793 18.67L36.1908 16.9284ZM45.7332 13.7541C45.9896 14.6382 46.0516 15.4484 45.9191 16.1849C45.7866 16.9214 45.4927 17.545 45.0374 18.0557C44.5821 18.5664 43.997 18.9254 43.2821 19.1327C42.5673 19.34 41.8809 19.3498 41.223 19.162C40.5651 18.9742 39.9831 18.6046 39.4772 18.0533C38.9712 17.5019 38.59 16.7843 38.3336 15.9002C38.0772 15.0162 38.0152 14.206 38.1477 13.4694C38.2802 12.7329 38.5741 12.1094 39.0294 11.5987C39.4847 11.088 40.0698 10.729 40.7846 10.5217C41.4995 10.3143 42.1859 10.3046 42.8438 10.4924C43.5017 10.6802 44.0836 11.0498 44.5896 11.6011C45.0956 12.1524 45.4768 12.8701 45.7332 13.7541ZM44.7509 14.039C44.5405 13.3132 44.2414 12.7359 43.8537 12.307C43.4688 11.8774 43.0332 11.594 42.5468 11.457C42.0631 11.3193 41.5675 11.324 41.06 11.4712C40.5525 11.6184 40.13 11.8799 39.7924 12.2559C39.4575 12.6311 39.241 13.1035 39.143 13.6733C39.0477 14.2422 39.1053 14.8896 39.3158 15.6154C39.5263 16.3411 39.824 16.9189 40.209 17.3485C40.5966 17.7774 41.0323 18.0607 41.5159 18.1985C42.0023 18.3355 42.4992 18.3304 43.0067 18.1832C43.5142 18.036 43.9354 17.7748 44.2703 17.3996C44.6079 17.0237 44.8244 16.5512 44.9197 15.9823C45.0177 15.4125 44.9614 14.7648 44.7509 14.039ZM49.2437 13.679L49.5404 17.6053L48.5376 17.6811L48.0444 11.1542L49.0133 11.0811L49.0903 12.1009L49.1753 12.0945C49.3032 11.7515 49.5154 11.4676 49.8118 11.2429C50.108 11.0154 50.5026 10.8831 50.9955 10.8458C51.4374 10.8124 51.8309 10.8739 52.1761 11.0301C52.521 11.1836 52.7993 11.436 53.0111 11.7875C53.2226 12.1362 53.3494 12.5882 53.3913 13.1434L53.7047 17.2907L52.7018 17.3665L52.3936 13.2872C52.3549 12.7745 52.1916 12.3851 51.9037 12.1191C51.6155 11.8503 51.2392 11.7334 50.7746 11.7685C50.4545 11.7927 50.1736 11.8837 49.932 12.0416C49.6932 12.1992 49.5116 12.4166 49.3872 12.6938C49.2629 12.971 49.215 13.2994 49.2437 13.679ZM56.9516 8.59775L56.5324 17.3149L55.5279 17.2666L55.9471 8.54944L56.9516 8.59775ZM58.5641 20.0513C58.3963 20.0213 58.2492 19.9806 58.1227 19.9291C57.9958 19.8805 57.9094 19.8391 57.8635 19.8049L58.2712 18.9773C58.5007 19.0818 58.7092 19.1422 58.8968 19.1584C59.0844 19.1746 59.2627 19.1213 59.4318 18.9986C59.6032 18.8792 59.7783 18.6666 59.957 18.3609L60.2316 17.8905L59.0063 10.9878L60.0802 11.1797L60.9413 16.6321L61.0084 16.6441L63.7046 11.8273L64.7785 12.0193L60.724 18.9135C60.5415 19.2243 60.3399 19.4726 60.1191 19.6582C59.8979 19.8467 59.6575 19.9725 59.398 20.0358C59.1413 20.0996 58.8633 20.1048 58.5641 20.0513Z" fill="white"/>
<path d="M93.697 25.1544L94.465 26.155L90.5244 32.9187L90.5866 32.9998L98.1391 30.9415L98.9072 31.9421L91.9842 37.2561L91.3823 36.4718L96.6421 32.4344L96.5902 32.3668L89.6697 34.2408L89.0885 33.4836L92.6877 27.2828L92.6358 27.2152L87.376 31.2526L86.774 30.4684L93.697 25.1544ZM93.6318 40.7283C93.4622 40.3498 93.3795 39.9744 93.3838 39.602C93.3907 39.2284 93.4896 38.8899 93.6804 38.5864C93.8739 38.2817 94.165 38.0423 94.5539 37.868C94.8961 37.7146 95.2037 37.6576 95.4767 37.6971C95.7523 37.7355 96.0015 37.8401 96.2245 38.0111C96.4474 38.182 96.6497 38.3902 96.8313 38.6356C97.0167 38.8826 97.1897 39.1366 97.3504 39.3977C97.5597 39.7397 97.7266 40.0182 97.851 40.2333C97.9792 40.4498 98.0964 40.5966 98.2025 40.6735C98.3097 40.7531 98.4373 40.7598 98.585 40.6935L98.6161 40.6796C98.9998 40.5076 99.2509 40.269 99.3693 39.9637C99.4889 39.661 99.454 39.2984 99.2646 38.8758C99.0682 38.4377 98.8183 38.1372 98.5149 37.9744C98.2116 37.8115 97.9283 37.7283 97.6652 37.7248L97.5859 36.7143C98.0185 36.7072 98.3941 36.7879 98.7125 36.9565C99.0346 37.1265 99.305 37.3478 99.5237 37.6203C99.7461 37.8942 99.9247 38.1815 100.059 38.4822C100.145 38.674 100.221 38.9048 100.286 39.1746C100.354 39.4458 100.371 39.7295 100.336 40.0255C100.301 40.3242 100.178 40.6146 99.9651 40.8968C99.7522 41.179 99.4086 41.4265 98.9342 41.6391L94.9989 43.4031L94.5876 42.4854L95.3964 42.1228L95.3755 42.0762C95.218 42.0721 95.0328 42.0305 94.82 41.9516C94.6071 41.8727 94.3948 41.7359 94.1831 41.5413C93.9713 41.3467 93.7876 41.0757 93.6318 40.7283ZM94.519 40.4988C94.6817 40.8617 94.8901 41.1356 95.1442 41.3206C95.3995 41.5081 95.6684 41.6149 95.9509 41.6408C96.2345 41.6693 96.5008 41.6278 96.7496 41.5162L97.5896 41.1397C97.5255 41.1218 97.4443 41.0554 97.3462 40.9406C97.2518 40.8273 97.152 40.6914 97.0468 40.5331C96.9453 40.3762 96.8482 40.2221 96.7554 40.0707C96.6664 39.9207 96.5933 39.7993 96.5362 39.7066C96.3982 39.482 96.2477 39.2818 96.0847 39.1057C95.9255 38.9312 95.7488 38.8112 95.5544 38.7457C95.3638 38.6817 95.1519 38.702 94.9186 38.8066C94.5997 38.9495 94.4115 39.1755 94.3539 39.4846C94.3001 39.7952 94.3551 40.1332 94.519 40.4988ZM96.0833 47.7367C95.938 47.1406 95.9536 46.5929 96.1302 46.0937C96.3068 45.5945 96.6139 45.1687 97.0514 44.8165C97.489 44.4642 98.0252 44.2107 98.66 44.056C99.3058 43.8985 99.9047 43.8783 100.457 43.9953C101.012 44.1143 101.481 44.3537 101.864 44.7136C102.251 45.0756 102.514 45.5436 102.654 46.1177C102.763 46.5648 102.778 46.988 102.7 47.3872C102.622 47.7863 102.462 48.1368 102.22 48.4386C101.977 48.7403 101.664 48.9672 101.28 49.1193L101.042 48.1422C101.314 47.997 101.53 47.7689 101.691 47.4577C101.855 47.1486 101.885 46.7788 101.78 46.3482C101.687 45.9673 101.507 45.6575 101.238 45.4189C100.973 45.1824 100.641 45.0278 100.243 44.9552C99.8488 44.8847 99.4115 44.9079 98.9313 45.025C98.44 45.1447 98.031 45.3263 97.7043 45.5697C97.3783 45.8158 97.1492 46.1055 97.017 46.4389C96.8855 46.7751 96.8669 47.1364 96.961 47.5228C97.0229 47.7767 97.1233 47.9964 97.2621 48.1819C97.4008 48.3674 97.5705 48.5117 97.7711 48.6149C97.9717 48.718 98.1953 48.7717 98.442 48.7759L98.6801 49.753C98.2913 49.7893 97.9199 49.7351 97.5659 49.5904C97.2153 49.4478 96.9083 49.2199 96.6449 48.9069C96.3849 48.596 96.1977 48.206 96.0833 47.7367ZM101.503 55.0691L100.568 55.1396L100.281 51.3323L101.215 51.2617L101.503 55.0691ZM100.655 65.1223C99.7413 65.0083 98.9726 64.7448 98.3485 64.3319C97.7243 63.919 97.2678 63.4025 96.9787 62.7824C96.6897 62.1623 96.5913 61.4829 96.6835 60.7443C96.7757 60.0057 97.0381 59.3714 97.4708 58.8414C97.9034 58.3114 98.473 57.923 99.1794 57.6762C99.8859 57.4294 100.696 57.3631 101.609 57.4771C102.523 57.5911 103.291 57.8546 103.915 58.2675C104.539 58.6804 104.996 59.1969 105.285 59.817C105.574 60.4372 105.673 61.1165 105.58 61.8551C105.488 62.5937 105.226 63.228 104.793 63.758C104.36 64.288 103.791 64.6764 103.084 64.9232C102.378 65.17 101.568 65.2363 100.655 65.1223ZM100.781 64.1075C101.531 64.2011 102.18 64.1546 102.727 63.9682C103.274 63.7845 103.706 63.4964 104.024 63.1038C104.342 62.714 104.534 62.257 104.599 61.7326C104.665 61.2083 104.592 60.7167 104.38 60.258C104.168 59.802 103.819 59.4164 103.335 59.1011C102.85 58.7886 102.232 58.5856 101.482 58.492C100.733 58.3983 100.084 58.4434 99.5374 58.627C98.9902 58.8135 98.5577 59.1016 98.2399 59.4914C97.9218 59.884 97.73 60.3425 97.6645 60.8668C97.5991 61.3911 97.6724 61.8813 97.8846 62.3372C98.0965 62.796 98.4448 63.1816 98.9297 63.4941C99.4143 63.8094 100.032 64.0138 100.781 64.1075ZM99.2949 68.4135L95.5884 67.0845L95.9279 66.1379L102.089 68.3471L101.761 69.2617L100.799 68.9165L100.77 68.9967C101.031 69.2533 101.204 69.5627 101.288 69.925C101.375 70.2882 101.335 70.7024 101.168 71.1677C101.019 71.5849 100.802 71.9192 100.519 72.1708C100.238 72.4232 99.8944 72.5745 99.4871 72.6247C99.0825 72.6758 98.6181 72.6073 98.0939 72.4194L94.1789 71.0156L94.5183 70.069L98.3692 71.4497C98.8532 71.6233 99.2754 71.6328 99.6356 71.4782C99.9985 71.3247 100.259 71.0286 100.416 70.59C100.524 70.2878 100.555 69.9943 100.51 69.7093C100.463 69.427 100.339 69.1725 100.136 68.946C99.9336 68.7195 99.6532 68.542 99.2949 68.4135ZM100.744 77.5838L92.9895 73.5793L93.451 72.6858L101.205 76.6903L100.744 77.5838ZM89.6564 74.2907C89.7534 74.1505 89.8515 74.0336 89.9508 73.9399C90.0478 73.8446 90.1213 73.7832 90.1715 73.7557L90.755 74.4702C90.5647 74.6356 90.4232 74.8002 90.3305 74.9641C90.2379 75.1281 90.2123 75.3124 90.2537 75.5172C90.2912 75.7228 90.4119 75.9703 90.6158 76.2598L90.9297 76.7049L97.718 78.4566L97.0975 79.3538L91.7798 77.8731L91.741 77.9292L95.0033 82.382L94.3828 83.2793L89.7945 76.7281C89.5876 76.433 89.4455 76.1465 89.3683 75.8686C89.2887 75.589 89.274 75.3181 89.3242 75.0557C89.3728 74.7957 89.4835 74.5407 89.6564 74.2907Z" fill="white"/>
<circle cx="79.5" cy="93.291" r="1.5" fill="white"/>
<circle cx="13.5" cy="59.291" r="1.5" fill="white"/>
<circle cx="78.5" cy="18.291" r="1.5" fill="white"/>
</svg>
