<svg width="40" height="40" viewBox="0 0 40 40" fill="none" xmlns="http://www.w3.org/2000/svg">
<rect width="40" height="40" rx="10" transform="matrix(-1 0 0 1 40 0)" fill="#D0823C"/>
<path d="M15.7708 17.5771C15.4452 17.3817 15.0229 17.4873 14.8276 17.8129C14.6322 18.1385 14.7378 18.5608 15.0634 18.7561L18.2318 20.6572C19.3205 21.3104 20.6804 21.3104 21.769 20.6572L24.9375 18.7561C25.263 18.5608 25.3686 18.1385 25.1733 17.8129C24.9779 17.4873 24.5556 17.3817 24.23 17.5771L21.0616 19.4782C20.4084 19.87 19.5924 19.87 18.9393 19.4782L15.7708 17.5771Z" fill="white"/>
<path fill-rule="evenodd" clip-rule="evenodd" d="M21.8181 11.2907C20.6802 10.6902 19.3191 10.6902 18.1813 11.2907L12.2229 14.4354C10.9451 15.1098 10.1455 16.436 10.1455 17.8808V25.3167C10.1455 27.4683 11.8897 29.2126 14.0413 29.2126H25.958C28.1096 29.2126 29.8538 27.4683 29.8538 25.3167V17.8808C29.8538 16.436 29.0542 15.1098 27.7764 14.4354L21.8181 11.2907ZM18.823 12.5068C19.5593 12.1182 20.44 12.1182 21.1763 12.5068L27.1346 15.6515C27.9615 16.0878 28.4788 16.9459 28.4788 17.8808V25.3167C28.4788 26.709 27.3502 27.8376 25.958 27.8376H14.0413C12.6491 27.8376 11.5205 26.709 11.5205 25.3167V17.8808C11.5205 16.9459 12.0379 16.0878 12.8647 15.6515L18.823 12.5068Z" fill="white"/>
</svg>
